# xmcd
# 
# Track frame offsets:
#     150
#     14924
#     38385
#     52560
#     70651
#     87753
#     108101
#     126901
#     144496
#     159827
#     176725
#     193780
# 
# Disc length: 2821
# 
# Revision: 0
# Processed by: cddbd v1.5.2PL0 Copyright (c) Steve Scherf et al.
# Submitted via: fre:ac v1.0.27
# 
DISCID=910b030c
DTITLE=Rod Jackson - Time Doesn't Wait [CD2]
DYEAR=2010
DGENRE=Country
TTITLE0=Be My Hands
TTITLE1=Long Way Home
TTITLE2=Masterpiece
TTITLE3=She Still Guides Me
TTITLE4=If Tomorrow Never Comes
TTITLE5=Go Rest High On That Mountain
TTITLE6=Cool Change
TTITLE7=Chiseled In Stone
TTITLE8=If I Had You
TTITLE9=I'd Love You To Want Me
TTITLE10=The Greatest Gift Of All
TTITLE11=The Boy From The Woods
EXTD=
EXTT0=
EXTT1=
EXTT2=
EXTT3=
EXTT4=
EXTT5=
EXTT6=
EXTT7=
EXTT8=
EXTT9=
EXTT10=
EXTT11=
PLAYORDER=
